<?xml version="1.0" encoding="UTF-8" standalone="no"?>
<!-- Created with Inkscape (http://www.inkscape.org/) -->

<svg
   width="114.62279mm"
   height="114.66925mm"
   viewBox="0 0 114.62279 114.66925"
   version="1.1"
   id="svg5"
   xml:space="preserve"
   xmlns:xlink="http://www.w3.org/1999/xlink"
   xmlns="http://www.w3.org/2000/svg"
   xmlns:svg="http://www.w3.org/2000/svg"><defs
     id="defs2"><filter
       style="color-interpolation-filters:sRGB"
       id="filter1430"
       x="-0.21488334"
       y="-0.26330554"
       width="1.4297673"
       height="1.5266099"><feGaussianBlur
         stdDeviation="0.061049368"
         id="feGaussianBlur1432" /></filter></defs><g
     id="layer1"
     transform="translate(-46.504857,-60.09405)"><g
       id="g6132"><g
         id="g2918"><ellipse
           style="opacity:0.880085;fill:none;fill-opacity:0.996078;stroke:#000000;stroke-width:0.626;stroke-linecap:round;stroke-linejoin:round;stroke-miterlimit:0;stroke-dasharray:none;stroke-opacity:0.905882;paint-order:normal"
           id="ellipse844"
           ry="25.536617"
           rx="25.5191"
           cy="117.42867"
           cx="103.81625" /><ellipse
           style="opacity:0.909437;fill:none;fill-opacity:0.996078;stroke:#000000;stroke-width:46.96;stroke-linecap:round;stroke-linejoin:round;stroke-miterlimit:0;stroke-dasharray:none;stroke-opacity:0.996078;paint-order:normal"
           id="ellipse4406"
           cx="103.81625"
           cy="117.42867"
           rx="33.831398"
           ry="33.854622" /><ellipse
           style="opacity:0.779807;fill:none;fill-opacity:0.996078;stroke:#ffcc00;stroke-width:42.76;stroke-linecap:round;stroke-linejoin:round;stroke-miterlimit:0;stroke-dasharray:none;stroke-opacity:0.996078;paint-order:normal"
           id="ellipse2617"
           cx="103.81625"
           cy="117.42867"
           rx="33.831398"
           ry="33.854622" /><ellipse
           style="opacity:0.750235;fill:none;stroke:#ffcc00;stroke-width:37.66;stroke-linecap:round;stroke-linejoin:round;stroke-miterlimit:0;stroke-dasharray:none;stroke-opacity:1;paint-order:normal"
           id="path234"
           cx="103.81625"
           cy="117.42867"
           rx="33.831398"
           ry="33.854622" /></g><text
         xml:space="preserve"
         style="font-style:normal;font-variant:normal;font-weight:normal;font-stretch:normal;font-size:12.6261px;font-family:'Honey Silk';-inkscape-font-specification:'Honey Silk, Normal';font-variant-ligatures:normal;font-variant-caps:normal;font-variant-numeric:normal;font-variant-east-asian:normal;opacity:0.958;fill:#2b2200;fill-opacity:1;stroke:#010101;stroke-width:0.715809;stroke-linecap:round;stroke-linejoin:round;stroke-miterlimit:0;stroke-dasharray:none;stroke-opacity:1;paint-order:normal"
         id="text3032"
         transform="matrix(0.50104883,-1.1531698,1.1531698,0.50104883,-82.385937,179.07287)"><textPath
           xlink:href="#ellipse844"
           id="textPath3030"><tspan
             id="tspan3028"
             style="font-style:normal;font-variant:normal;font-weight:normal;font-stretch:normal;font-size:12.6261px;font-family:'Honey Silk';-inkscape-font-specification:'Honey Silk, Normal';font-variant-ligatures:normal;font-variant-caps:normal;font-variant-numeric:normal;font-variant-east-asian:normal;fill:#2b2200;fill-opacity:1;stroke:#010101;stroke-width:0.715809;stroke-dasharray:none;stroke-opacity:1">Layover  Skateshop</tspan></textPath></text><text
         xml:space="preserve"
         style="font-style:normal;font-variant:normal;font-weight:normal;font-stretch:normal;font-size:12.6261px;font-family:'Honey Silk';-inkscape-font-specification:'Honey Silk, Normal';font-variant-ligatures:normal;font-variant-caps:normal;font-variant-numeric:normal;font-variant-east-asian:normal;opacity:0.984835;fill:#e3e2db;fill-opacity:1;stroke:#010101;stroke-width:0.715809;stroke-linecap:round;stroke-linejoin:round;stroke-miterlimit:0;stroke-dasharray:none;stroke-opacity:1;paint-order:normal"
         id="text2924"
         transform="matrix(0.50104883,-1.1531698,1.1531698,0.50104883,-83.578532,179.07287)"><textPath
           xlink:href="#ellipse844"
           id="textPath2922"><tspan
             id="tspan2920"
             style="font-style:normal;font-variant:normal;font-weight:normal;font-stretch:normal;font-size:12.6261px;font-family:'Honey Silk';-inkscape-font-specification:'Honey Silk, Normal';font-variant-ligatures:normal;font-variant-caps:normal;font-variant-numeric:normal;font-variant-east-asian:normal;fill:#e3e2db;stroke:#010101;stroke-width:0.715809;stroke-dasharray:none;stroke-opacity:1">Layover  Skateshop</tspan></textPath></text><g
         id="g3116"
         transform="matrix(1.2910616,0,0,1.2910616,-31.059747,-23.200516)"><g
           id="g1725"
           transform="matrix(0.61482018,0.06323317,-0.06323317,0.61482018,72.074732,14.542557)"
           style="fill:#222b00;stroke:#010101;stroke-width:2.29426;stroke-linejoin:round;stroke-dasharray:none;stroke-opacity:1"><path
             id="path1623"
             style="opacity:0.979168;mix-blend-mode:normal;fill:#222b00;fill-opacity:1;stroke:#010101;stroke-width:2.29426;stroke-linecap:round;stroke-linejoin:round;stroke-miterlimit:0;stroke-dasharray:none;stroke-opacity:1;paint-order:stroke markers fill;filter:url(#filter1430)"
             d="m 67.685454,88.183438 c -2.354081,2.578 -3.001121,4.40463 -3.145028,6.9758 -0.187479,0.12412 -0.379412,0.21543 -0.626355,-0.0986 l -0.660904,-0.9184 -0.257532,1.72218 c -0.237025,0.98218 1.241911,3.23061 -0.455875,2.19048 -0.196882,-0.058 -0.292795,-0.27073 -0.390402,-0.48083 0.230967,1.26276 0.06812,2.0902 0.995449,3.698642 0.95071,1.26487 2.961456,2.14056 4.212669,3.0737 0.287849,-0.22762 -0.01247,-0.40619 0.527973,-0.60524 2.357809,-0.60735 4.291023,-2.03806 4.73766,-3.22192 0.204634,-0.538162 0.372906,-1.606242 0.356946,-2.322132 -0.0091,-0.40618 0.138413,-0.79212 0.173239,-1.04444 -0.425247,0.30494 -1.123343,0.4092 -1.294451,0.87616 l -0.112818,0.0385 c 0.141688,-0.42692 0.526248,-0.82323 0.639075,-1.35122 0.0835,-0.52643 0.203294,-1.10721 -0.08029,-1.83389 l -0.364835,-0.92552 c -0.137398,0.44955 -0.2667,0.91194 -0.590145,1.0666 -0.289056,0.0884 -0.414924,0.22676 -0.494543,0.37931 0.295914,-2.35075 -0.575895,-3.82816 -2.148879,-5.17318 -0.850009,-0.73778 -0.893478,-1.38731 -1.020954,-2.04604 z" /><g
             id="g1710"
             style="fill:#222b00;stroke:#010101;stroke-width:2.29426;stroke-linejoin:round;stroke-dasharray:none;stroke-opacity:1"><path
               id="path1686"
               style="opacity:0.979168;mix-blend-mode:normal;fill:#222b00;fill-opacity:1;stroke:#010101;stroke-width:1.38783;stroke-linecap:round;stroke-linejoin:round;stroke-miterlimit:0;stroke-dasharray:none;stroke-opacity:1;paint-order:stroke markers fill;filter:url(#filter1430)"
               d="m 77.173547,106.46781 c -2.59206,0.1919 -3.429832,1.42222 -3.911002,3.19183 2.166822,-0.24071 3.244752,-0.65051 3.911002,-3.19183 z"
               transform="matrix(-1.6531308,0,0,1.6531308,182.85185,-71.98875)" /><path
               style="opacity:0.979168;mix-blend-mode:normal;fill:#222b00;fill-opacity:1;stroke:#010101;stroke-width:1.92659;stroke-linecap:round;stroke-linejoin:round;stroke-miterlimit:0;stroke-dasharray:none;stroke-opacity:1;paint-order:stroke markers fill;filter:url(#filter1430)"
               d="m 68.184376,109.63261 c 0.105472,-1.39217 -0.348709,-3.10708 0.948661,-4.6384 0.779388,-0.8269 1.557392,-1.30907 3.438611,-2.38668 1.821339,-1.2044 2.342387,-2.933125 3.116188,-4.295495 0.557458,1.53677 0.85381,3.072525 0.402879,4.239115 -1.036679,3.03285 -4.074547,3.45002 -6.089237,4.86744 -0.562953,0.32366 -1.109914,0.67751 -1.817102,2.21402 z"
               id="path1688"
               transform="matrix(-1.1908416,0,0,1.1908416,148.6773,-20.064513)" /></g><g
             id="g1716"
             transform="matrix(-1,0,0,1,135.57475,0)"
             style="fill:#222b00;stroke:#010101;stroke-width:2.29426;stroke-linejoin:round;stroke-dasharray:none;stroke-opacity:1"><path
               id="path1712"
               style="opacity:0.979168;mix-blend-mode:normal;fill:#222b00;fill-opacity:1;stroke:#010101;stroke-width:1.38783;stroke-linecap:round;stroke-linejoin:round;stroke-miterlimit:0;stroke-dasharray:none;stroke-opacity:1;paint-order:stroke markers fill;filter:url(#filter1430)"
               d="m 77.173547,106.46781 c -2.59206,0.1919 -3.429832,1.42222 -3.911002,3.19183 2.166822,-0.24071 3.244752,-0.65051 3.911002,-3.19183 z"
               transform="matrix(-1.6531308,0,0,1.6531308,182.85185,-71.98875)" /><path
               style="opacity:0.979168;mix-blend-mode:normal;fill:#222b00;fill-opacity:1;stroke:#010101;stroke-width:1.92659;stroke-linecap:round;stroke-linejoin:round;stroke-miterlimit:0;stroke-dasharray:none;stroke-opacity:1;paint-order:stroke markers fill;filter:url(#filter1430)"
               d="m 68.184376,109.63261 c 0.105472,-1.39217 -0.348709,-3.10708 0.948661,-4.6384 0.779388,-0.8269 1.557392,-1.30907 3.438611,-2.38668 1.821339,-1.2044 2.342387,-2.933125 3.116188,-4.295495 0.557458,1.53677 0.85381,3.072525 0.402879,4.239115 -1.036679,3.03285 -4.074547,3.45002 -6.089237,4.86744 -0.562953,0.32366 -1.109914,0.67751 -1.817102,2.21402 z"
               id="path1714"
               transform="matrix(-1.1908416,0,0,1.1908416,148.6773,-20.064513)" /></g></g><g
           id="g3048"
           transform="matrix(0.61482018,0.06323317,-0.06323317,0.61482018,71.483309,14.333261)"
           style="fill:#f4eed7;stroke:#010101;stroke-width:0.999898;stroke-dasharray:none;stroke-opacity:1"><path
             id="path3034"
             style="opacity:0.979168;mix-blend-mode:normal;fill:#f4eed7;fill-opacity:1;stroke:#010101;stroke-width:0.999898;stroke-linecap:round;stroke-linejoin:round;stroke-miterlimit:0;stroke-dasharray:none;stroke-opacity:1;paint-order:stroke markers fill;filter:url(#filter1430)"
             d="m 67.685454,88.183438 c -2.354081,2.578 -3.001121,4.40463 -3.145028,6.9758 -0.187479,0.12412 -0.379412,0.21543 -0.626355,-0.0986 l -0.660904,-0.9184 -0.257532,1.72218 c -0.237025,0.98218 1.241911,3.23061 -0.455875,2.19048 -0.196882,-0.058 -0.292795,-0.27073 -0.390402,-0.48083 0.230967,1.26276 0.06812,2.0902 0.995449,3.698642 0.95071,1.26487 2.961456,2.14056 4.212669,3.0737 0.287849,-0.22762 -0.01247,-0.40619 0.527973,-0.60524 2.357809,-0.60735 4.291023,-2.03806 4.73766,-3.22192 0.204634,-0.538162 0.372906,-1.606242 0.356946,-2.322132 -0.0091,-0.40618 0.138413,-0.79212 0.173239,-1.04444 -0.425247,0.30494 -1.123343,0.4092 -1.294451,0.87616 l -0.112818,0.0385 c 0.141688,-0.42692 0.526248,-0.82323 0.639075,-1.35122 0.0835,-0.52643 0.203294,-1.10721 -0.08029,-1.83389 l -0.364835,-0.92552 c -0.137398,0.44955 -0.2667,0.91194 -0.590145,1.0666 -0.289056,0.0884 -0.414924,0.22676 -0.494543,0.37931 0.295914,-2.35075 -0.575895,-3.82816 -2.148879,-5.17318 -0.850009,-0.73778 -0.893478,-1.38731 -1.020954,-2.04604 z" /><g
             id="g3040"
             style="fill:#f4eed7;stroke:#010101;stroke-width:0.999898;stroke-dasharray:none;stroke-opacity:1"><path
               id="path3036"
               style="opacity:0.979168;mix-blend-mode:normal;fill:#f4eed7;fill-opacity:1;stroke:#010101;stroke-width:0.604851;stroke-linecap:round;stroke-linejoin:round;stroke-miterlimit:0;stroke-dasharray:none;stroke-opacity:1;paint-order:stroke markers fill;filter:url(#filter1430)"
               d="m 77.173547,106.46781 c -2.59206,0.1919 -3.429832,1.42222 -3.911002,3.19183 2.166822,-0.24071 3.244752,-0.65051 3.911002,-3.19183 z"
               transform="matrix(-1.6531308,0,0,1.6531308,182.85185,-71.98875)" /><path
               style="opacity:0.979168;mix-blend-mode:normal;fill:#f4eed7;fill-opacity:1;stroke:#010101;stroke-width:0.839656;stroke-linecap:round;stroke-linejoin:round;stroke-miterlimit:0;stroke-dasharray:none;stroke-opacity:1;paint-order:stroke markers fill;filter:url(#filter1430)"
               d="m 68.184376,109.63261 c 0.105472,-1.39217 -0.348709,-3.10708 0.948661,-4.6384 0.779388,-0.8269 1.557392,-1.30907 3.438611,-2.38668 1.821339,-1.2044 2.342387,-2.933125 3.116188,-4.295495 0.557458,1.53677 0.85381,3.072525 0.402879,4.239115 -1.036679,3.03285 -4.074547,3.45002 -6.089237,4.86744 -0.562953,0.32366 -1.109914,0.67751 -1.817102,2.21402 z"
               id="path3038"
               transform="matrix(-1.1908416,0,0,1.1908416,148.6773,-20.064513)" /></g><g
             id="g3046"
             transform="matrix(-1,0,0,1,135.57475,0)"
             style="fill:#f4eed7;stroke:#010101;stroke-width:0.999898;stroke-dasharray:none;stroke-opacity:1"><path
               id="path3042"
               style="opacity:0.979168;mix-blend-mode:normal;fill:#f4eed7;fill-opacity:1;stroke:#010101;stroke-width:0.604851;stroke-linecap:round;stroke-linejoin:round;stroke-miterlimit:0;stroke-dasharray:none;stroke-opacity:1;paint-order:stroke markers fill;filter:url(#filter1430)"
               d="m 77.173547,106.46781 c -2.59206,0.1919 -3.429832,1.42222 -3.911002,3.19183 2.166822,-0.24071 3.244752,-0.65051 3.911002,-3.19183 z"
               transform="matrix(-1.6531308,0,0,1.6531308,182.85185,-71.98875)" /><path
               style="opacity:0.979168;mix-blend-mode:normal;fill:#f4eed7;fill-opacity:1;stroke:#010101;stroke-width:0.839656;stroke-linecap:round;stroke-linejoin:round;stroke-miterlimit:0;stroke-dasharray:none;stroke-opacity:1;paint-order:stroke markers fill;filter:url(#filter1430)"
               d="m 68.184376,109.63261 c 0.105472,-1.39217 -0.348709,-3.10708 0.948661,-4.6384 0.779388,-0.8269 1.557392,-1.30907 3.438611,-2.38668 1.821339,-1.2044 2.342387,-2.933125 3.116188,-4.295495 0.557458,1.53677 0.85381,3.072525 0.402879,4.239115 -1.036679,3.03285 -4.074547,3.45002 -6.089237,4.86744 -0.562953,0.32366 -1.109914,0.67751 -1.817102,2.21402 z"
               id="path3044"
               transform="matrix(-1.1908416,0,0,1.1908416,148.6773,-20.064513)" /></g></g></g><g
         id="g3150"
         transform="matrix(-0.77479591,0.28289135,-0.28289135,-0.77479591,217.16714,186.25049)"><g
           id="g3132"
           transform="matrix(0.61482018,0.06323317,-0.06323317,0.61482018,72.074732,14.542557)"
           style="fill:#222b00;stroke:#010101;stroke-width:2.29426;stroke-linejoin:round;stroke-dasharray:none;stroke-opacity:1"><path
             id="path3118"
             style="opacity:0.979168;mix-blend-mode:normal;fill:#222b00;fill-opacity:1;stroke:#010101;stroke-width:2.29426;stroke-linecap:round;stroke-linejoin:round;stroke-miterlimit:0;stroke-dasharray:none;stroke-opacity:1;paint-order:stroke markers fill;filter:url(#filter1430)"
             d="m 67.685454,88.183438 c -2.354081,2.578 -3.001121,4.40463 -3.145028,6.9758 -0.187479,0.12412 -0.379412,0.21543 -0.626355,-0.0986 l -0.660904,-0.9184 -0.257532,1.72218 c -0.237025,0.98218 1.241911,3.23061 -0.455875,2.19048 -0.196882,-0.058 -0.292795,-0.27073 -0.390402,-0.48083 0.230967,1.26276 0.06812,2.0902 0.995449,3.698642 0.95071,1.26487 2.961456,2.14056 4.212669,3.0737 0.287849,-0.22762 -0.01247,-0.40619 0.527973,-0.60524 2.357809,-0.60735 4.291023,-2.03806 4.73766,-3.22192 0.204634,-0.538162 0.372906,-1.606242 0.356946,-2.322132 -0.0091,-0.40618 0.138413,-0.79212 0.173239,-1.04444 -0.425247,0.30494 -1.123343,0.4092 -1.294451,0.87616 l -0.112818,0.0385 c 0.141688,-0.42692 0.526248,-0.82323 0.639075,-1.35122 0.0835,-0.52643 0.203294,-1.10721 -0.08029,-1.83389 l -0.364835,-0.92552 c -0.137398,0.44955 -0.2667,0.91194 -0.590145,1.0666 -0.289056,0.0884 -0.414924,0.22676 -0.494543,0.37931 0.295914,-2.35075 -0.575895,-3.82816 -2.148879,-5.17318 -0.850009,-0.73778 -0.893478,-1.38731 -1.020954,-2.04604 z" /><g
             id="g3124"
             style="fill:#222b00;stroke:#010101;stroke-width:2.29426;stroke-linejoin:round;stroke-dasharray:none;stroke-opacity:1"><path
               id="path3120"
               style="opacity:0.979168;mix-blend-mode:normal;fill:#222b00;fill-opacity:1;stroke:#010101;stroke-width:1.38783;stroke-linecap:round;stroke-linejoin:round;stroke-miterlimit:0;stroke-dasharray:none;stroke-opacity:1;paint-order:stroke markers fill;filter:url(#filter1430)"
               d="m 77.173547,106.46781 c -2.59206,0.1919 -3.429832,1.42222 -3.911002,3.19183 2.166822,-0.24071 3.244752,-0.65051 3.911002,-3.19183 z"
               transform="matrix(-1.6531308,0,0,1.6531308,182.85185,-71.98875)" /><path
               style="opacity:0.979168;mix-blend-mode:normal;fill:#222b00;fill-opacity:1;stroke:#010101;stroke-width:1.92659;stroke-linecap:round;stroke-linejoin:round;stroke-miterlimit:0;stroke-dasharray:none;stroke-opacity:1;paint-order:stroke markers fill;filter:url(#filter1430)"
               d="m 68.184376,109.63261 c 0.105472,-1.39217 -0.348709,-3.10708 0.948661,-4.6384 0.779388,-0.8269 1.557392,-1.30907 3.438611,-2.38668 1.821339,-1.2044 2.342387,-2.933125 3.116188,-4.295495 0.557458,1.53677 0.85381,3.072525 0.402879,4.239115 -1.036679,3.03285 -4.074547,3.45002 -6.089237,4.86744 -0.562953,0.32366 -1.109914,0.67751 -1.817102,2.21402 z"
               id="path3122"
               transform="matrix(-1.1908416,0,0,1.1908416,148.6773,-20.064513)" /></g><g
             id="g3130"
             transform="matrix(-1,0,0,1,135.57475,0)"
             style="fill:#222b00;stroke:#010101;stroke-width:2.29426;stroke-linejoin:round;stroke-dasharray:none;stroke-opacity:1"><path
               id="path3126"
               style="opacity:0.979168;mix-blend-mode:normal;fill:#222b00;fill-opacity:1;stroke:#010101;stroke-width:1.38783;stroke-linecap:round;stroke-linejoin:round;stroke-miterlimit:0;stroke-dasharray:none;stroke-opacity:1;paint-order:stroke markers fill;filter:url(#filter1430)"
               d="m 77.173547,106.46781 c -2.59206,0.1919 -3.429832,1.42222 -3.911002,3.19183 2.166822,-0.24071 3.244752,-0.65051 3.911002,-3.19183 z"
               transform="matrix(-1.6531308,0,0,1.6531308,182.85185,-71.98875)" /><path
               style="opacity:0.979168;mix-blend-mode:normal;fill:#222b00;fill-opacity:1;stroke:#010101;stroke-width:1.92659;stroke-linecap:round;stroke-linejoin:round;stroke-miterlimit:0;stroke-dasharray:none;stroke-opacity:1;paint-order:stroke markers fill;filter:url(#filter1430)"
               d="m 68.184376,109.63261 c 0.105472,-1.39217 -0.348709,-3.10708 0.948661,-4.6384 0.779388,-0.8269 1.557392,-1.30907 3.438611,-2.38668 1.821339,-1.2044 2.342387,-2.933125 3.116188,-4.295495 0.557458,1.53677 0.85381,3.072525 0.402879,4.239115 -1.036679,3.03285 -4.074547,3.45002 -6.089237,4.86744 -0.562953,0.32366 -1.109914,0.67751 -1.817102,2.21402 z"
               id="path3128"
               transform="matrix(-1.1908416,0,0,1.1908416,148.6773,-20.064513)" /></g></g><g
           id="g3148"
           transform="matrix(0.61482018,0.06323317,-0.06323317,0.61482018,71.483309,14.333261)"
           style="fill:#f4eed7;stroke:#010101;stroke-width:0.999898;stroke-dasharray:none;stroke-opacity:1"><path
             id="path3134"
             style="opacity:0.979168;mix-blend-mode:normal;fill:#f4eed7;fill-opacity:1;stroke:#010101;stroke-width:0.999898;stroke-linecap:round;stroke-linejoin:round;stroke-miterlimit:0;stroke-dasharray:none;stroke-opacity:1;paint-order:stroke markers fill;filter:url(#filter1430)"
             d="m 67.685454,88.183438 c -2.354081,2.578 -3.001121,4.40463 -3.145028,6.9758 -0.187479,0.12412 -0.379412,0.21543 -0.626355,-0.0986 l -0.660904,-0.9184 -0.257532,1.72218 c -0.237025,0.98218 1.241911,3.23061 -0.455875,2.19048 -0.196882,-0.058 -0.292795,-0.27073 -0.390402,-0.48083 0.230967,1.26276 0.06812,2.0902 0.995449,3.698642 0.95071,1.26487 2.961456,2.14056 4.212669,3.0737 0.287849,-0.22762 -0.01247,-0.40619 0.527973,-0.60524 2.357809,-0.60735 4.291023,-2.03806 4.73766,-3.22192 0.204634,-0.538162 0.372906,-1.606242 0.356946,-2.322132 -0.0091,-0.40618 0.138413,-0.79212 0.173239,-1.04444 -0.425247,0.30494 -1.123343,0.4092 -1.294451,0.87616 l -0.112818,0.0385 c 0.141688,-0.42692 0.526248,-0.82323 0.639075,-1.35122 0.0835,-0.52643 0.203294,-1.10721 -0.08029,-1.83389 l -0.364835,-0.92552 c -0.137398,0.44955 -0.2667,0.91194 -0.590145,1.0666 -0.289056,0.0884 -0.414924,0.22676 -0.494543,0.37931 0.295914,-2.35075 -0.575895,-3.82816 -2.148879,-5.17318 -0.850009,-0.73778 -0.893478,-1.38731 -1.020954,-2.04604 z" /><g
             id="g3140"
             style="fill:#f4eed7;stroke:#010101;stroke-width:0.999898;stroke-dasharray:none;stroke-opacity:1"><path
               id="path3136"
               style="opacity:0.979168;mix-blend-mode:normal;fill:#f4eed7;fill-opacity:1;stroke:#010101;stroke-width:0.604851;stroke-linecap:round;stroke-linejoin:round;stroke-miterlimit:0;stroke-dasharray:none;stroke-opacity:1;paint-order:stroke markers fill;filter:url(#filter1430)"
               d="m 77.173547,106.46781 c -2.59206,0.1919 -3.429832,1.42222 -3.911002,3.19183 2.166822,-0.24071 3.244752,-0.65051 3.911002,-3.19183 z"
               transform="matrix(-1.6531308,0,0,1.6531308,182.85185,-71.98875)" /><path
               style="opacity:0.979168;mix-blend-mode:normal;fill:#f4eed7;fill-opacity:1;stroke:#010101;stroke-width:0.839656;stroke-linecap:round;stroke-linejoin:round;stroke-miterlimit:0;stroke-dasharray:none;stroke-opacity:1;paint-order:stroke markers fill;filter:url(#filter1430)"
               d="m 68.184376,109.63261 c 0.105472,-1.39217 -0.348709,-3.10708 0.948661,-4.6384 0.779388,-0.8269 1.557392,-1.30907 3.438611,-2.38668 1.821339,-1.2044 2.342387,-2.933125 3.116188,-4.295495 0.557458,1.53677 0.85381,3.072525 0.402879,4.239115 -1.036679,3.03285 -4.074547,3.45002 -6.089237,4.86744 -0.562953,0.32366 -1.109914,0.67751 -1.817102,2.21402 z"
               id="path3138"
               transform="matrix(-1.1908416,0,0,1.1908416,148.6773,-20.064513)" /></g><g
             id="g3146"
             transform="matrix(-1,0,0,1,135.57475,0)"
             style="fill:#f4eed7;stroke:#010101;stroke-width:0.999898;stroke-dasharray:none;stroke-opacity:1"><path
               id="path3142"
               style="opacity:0.979168;mix-blend-mode:normal;fill:#f4eed7;fill-opacity:1;stroke:#010101;stroke-width:0.604851;stroke-linecap:round;stroke-linejoin:round;stroke-miterlimit:0;stroke-dasharray:none;stroke-opacity:1;paint-order:stroke markers fill;filter:url(#filter1430)"
               d="m 77.173547,106.46781 c -2.59206,0.1919 -3.429832,1.42222 -3.911002,3.19183 2.166822,-0.24071 3.244752,-0.65051 3.911002,-3.19183 z"
               transform="matrix(-1.6531308,0,0,1.6531308,182.85185,-71.98875)" /><path
               style="opacity:0.979168;mix-blend-mode:normal;fill:#f4eed7;fill-opacity:1;stroke:#010101;stroke-width:0.839656;stroke-linecap:round;stroke-linejoin:round;stroke-miterlimit:0;stroke-dasharray:none;stroke-opacity:1;paint-order:stroke markers fill;filter:url(#filter1430)"
               d="m 68.184376,109.63261 c 0.105472,-1.39217 -0.348709,-3.10708 0.948661,-4.6384 0.779388,-0.8269 1.557392,-1.30907 3.438611,-2.38668 1.821339,-1.2044 2.342387,-2.933125 3.116188,-4.295495 0.557458,1.53677 0.85381,3.072525 0.402879,4.239115 -1.036679,3.03285 -4.074547,3.45002 -6.089237,4.86744 -0.562953,0.32366 -1.109914,0.67751 -1.817102,2.21402 z"
               id="path3144"
               transform="matrix(-1.1908416,0,0,1.1908416,148.6773,-20.064513)" /></g></g></g><text
         xml:space="preserve"
         style="font-style:normal;font-variant:normal;font-weight:normal;font-stretch:normal;font-size:12.6261px;font-family:'Honey Silk';-inkscape-font-specification:'Honey Silk, Normal';font-variant-ligatures:normal;font-variant-caps:normal;font-variant-numeric:normal;font-variant-east-asian:normal;opacity:0.843265;fill:#e3e2db;fill-opacity:1;stroke:#010101;stroke-width:0.715809;stroke-linecap:round;stroke-linejoin:round;stroke-miterlimit:0;stroke-dasharray:none;stroke-opacity:1;paint-order:normal"
         id="text3156"
         transform="matrix(0.50104883,-1.1531698,1.1531698,0.50104883,-83.578532,179.07287)"><textPath
           xlink:href="#ellipse844"
           id="textPath3154"><tspan
             id="tspan3152"
             style="font-style:normal;font-variant:normal;font-weight:normal;font-stretch:normal;font-size:12.6261px;font-family:'Honey Silk';-inkscape-font-specification:'Honey Silk, Normal';font-variant-ligatures:normal;font-variant-caps:normal;font-variant-numeric:normal;font-variant-east-asian:normal;fill:#e3e2db;stroke:#010101;stroke-width:0.715809;stroke-dasharray:none;stroke-opacity:1">Layover  Skateshop</tspan></textPath></text></g></g></svg>
