<?xml version="1.0" encoding="UTF-8" standalone="no"?>
<!-- Created with Inkscape (http://www.inkscape.org/) -->

<svg
   width="27.793007mm"
   height="24.173668mm"
   viewBox="0 0 27.793007 24.173668"
   version="1.1"
   id="svg5"
   xml:space="preserve"
   xmlns:inkscape="http://www.inkscape.org/namespaces/inkscape"
   xmlns:sodipodi="http://sodipodi.sourceforge.net/DTD/sodipodi-0.dtd"
   xmlns="http://www.w3.org/2000/svg"
   xmlns:svg="http://www.w3.org/2000/svg"><sodipodi:namedview
     id="namedview7"
     pagecolor="#505050"
     bordercolor="#eeeeee"
     borderopacity="1"
     inkscape:showpageshadow="0"
     inkscape:pageopacity="0"
     inkscape:pagecheckerboard="0"
     inkscape:deskcolor="#505050"
     inkscape:document-units="mm"
     showgrid="false"
     showguides="false" /><defs
     id="defs2"><filter
       inkscape:collect="always"
       style="color-interpolation-filters:sRGB"
       id="filter1426"
       x="-0.08206068"
       y="-0.09524335"
       width="1.1641214"
       height="1.190523"><feGaussianBlur
         inkscape:collect="always"
         stdDeviation="0.1921882"
         id="feGaussianBlur1428" /></filter><filter
       inkscape:collect="always"
       style="color-interpolation-filters:sRGB"
       id="filter1430"
       x="-0.0058332067"
       y="-0.0067750448"
       width="1.0116664"
       height="1.01355"><feGaussianBlur
         inkscape:collect="always"
         stdDeviation="0.061049368"
         id="feGaussianBlur1432" /></filter></defs><g
     inkscape:label="Camada 1"
     inkscape:groupmode="layer"
     id="layer1"
     transform="translate(-75.286379,-98.648313)"><g
       id="g1474"><g
         id="g764"
         style="opacity:0.955934;fill:none;fill-opacity:1;stroke:#000000;stroke-width:3.2;stroke-linecap:round;stroke-linejoin:round;stroke-dasharray:none;stroke-opacity:1;filter:url(#filter1426)"
         transform="translate(-0.01652527,0.79091914)"><g
           id="g754"
           transform="translate(-1.5875)"
           style="fill:none;fill-opacity:1;stroke:#000000;stroke-width:3.2;stroke-linecap:round;stroke-linejoin:round;stroke-dasharray:none;stroke-opacity:1"><path
             id="path750"
             style="fill:none;fill-opacity:1;stroke:#000000;stroke-width:3.2;stroke-linecap:round;stroke-linejoin:round;stroke-miterlimit:0;stroke-dasharray:none;stroke-opacity:1;paint-order:stroke markers fill"
             d="m 103.26963,112.55977 c -2.59206,0.1919 -3.429832,1.42222 -3.911002,3.19183 2.166822,-0.24071 3.244752,-0.65051 3.911002,-3.19183 z"
             sodipodi:nodetypes="ccc" /><path
             style="fill:none;fill-opacity:1;stroke:#000000;stroke-width:3.2;stroke-linecap:round;stroke-linejoin:round;stroke-miterlimit:0;stroke-dasharray:none;stroke-opacity:1;paint-order:stroke markers fill"
             d="m 91.380814,120.77017 c 0.105472,-1.39217 -0.348709,-3.10708 0.948661,-4.6384 0.779388,-0.8269 1.557392,-1.30907 3.438611,-2.38668 1.821339,-1.2044 2.342387,-2.93313 3.116188,-4.2955 0.557458,1.53677 0.85381,3.07253 0.402879,4.23912 -1.036679,3.03285 -4.074547,3.45002 -6.089237,4.86744 -0.562953,0.32366 -1.109914,0.67751 -1.817102,2.21402 z"
             id="path752"
             sodipodi:nodetypes="ccccccc" /></g><path
           id="path756"
           style="fill:none;fill-opacity:1;stroke:#000000;stroke-width:3.2;stroke-linecap:round;stroke-linejoin:round;stroke-miterlimit:0;stroke-dasharray:none;stroke-opacity:1;paint-order:stroke markers fill"
           d="m 89.158896,99.144009 c -2.354081,2.578001 -3.001121,4.404631 -3.145028,6.975801 -0.187479,0.12412 -0.379412,0.21543 -0.626355,-0.0986 l -0.660904,-0.9184 -0.257532,1.72218 c -0.237025,0.98218 1.241911,3.23061 -0.455875,2.19048 -0.196882,-0.058 -0.292795,-0.27073 -0.390402,-0.48083 0.230967,1.26276 0.06812,2.0902 0.995449,3.69864 0.95071,1.26487 2.961456,2.14056 4.212669,3.0737 0.287849,-0.22762 -0.01247,-0.40619 0.527973,-0.60524 2.357809,-0.60735 4.291023,-2.03806 4.73766,-3.22192 0.204634,-0.53816 0.372906,-1.60624 0.356946,-2.32213 -0.0091,-0.40618 0.138413,-0.79212 0.173239,-1.04444 -0.425247,0.30494 -1.123343,0.4092 -1.294451,0.87616 l -0.112818,0.0385 c 0.141688,-0.42692 0.526248,-0.82323 0.639075,-1.35122 0.0835,-0.52643 0.203294,-1.10721 -0.08029,-1.83389 l -0.364835,-0.92552 c -0.137398,0.44955 -0.2667,0.91194 -0.590145,1.0666 -0.289056,0.0884 -0.414924,0.22676 -0.494543,0.37931 0.295914,-2.35075 -0.575895,-3.82816 -2.148879,-5.17318 -0.850009,-0.73778 -0.893478,-1.387311 -1.020954,-2.046041 z"
           sodipodi:nodetypes="cccccccccccsccccccccccc" /><g
           id="g762"
           transform="matrix(-1,0,0,1,179.83376,0)"
           style="fill:none;fill-opacity:1;stroke:#000000;stroke-width:3.2;stroke-linecap:round;stroke-linejoin:round;stroke-dasharray:none;stroke-opacity:1"><path
             id="path758"
             style="fill:none;fill-opacity:1;stroke:#000000;stroke-width:3.2;stroke-linecap:round;stroke-linejoin:round;stroke-miterlimit:0;stroke-dasharray:none;stroke-opacity:1;paint-order:stroke markers fill"
             d="m 103.26963,112.55977 c -2.59206,0.1919 -3.429832,1.42222 -3.911002,3.19183 2.166822,-0.24071 3.244752,-0.65051 3.911002,-3.19183 z"
             sodipodi:nodetypes="ccc" /><path
             style="fill:none;fill-opacity:1;stroke:#000000;stroke-width:3.2;stroke-linecap:round;stroke-linejoin:round;stroke-miterlimit:0;stroke-dasharray:none;stroke-opacity:1;paint-order:stroke markers fill"
             d="m 91.380814,120.77017 c 0.105472,-1.39217 -0.348709,-3.10708 0.948661,-4.6384 0.779388,-0.8269 1.557392,-1.30907 3.438611,-2.38668 1.821339,-1.2044 2.342387,-2.93313 3.116188,-4.2955 0.557458,1.53677 0.85381,3.07253 0.402879,4.23912 -1.036679,3.03285 -4.074547,3.45002 -6.089237,4.86744 -0.562953,0.32366 -1.109914,0.67751 -1.817102,2.21402 z"
             id="path760"
             sodipodi:nodetypes="ccccccc" /></g></g><g
         id="g1448"
         style="opacity:0.955934;fill:none;fill-opacity:1;stroke:#ff6600;stroke-width:1.8;stroke-linecap:round;stroke-linejoin:round;stroke-dasharray:none;stroke-opacity:1;filter:url(#filter1426)"
         transform="translate(0.13602912,0.76484399)"><g
           id="g1438"
           transform="translate(-1.5875)"
           style="fill:none;fill-opacity:1;stroke:#ff6600;stroke-width:1.8;stroke-linecap:round;stroke-linejoin:round;stroke-dasharray:none;stroke-opacity:1"><path
             id="path1434"
             style="fill:none;fill-opacity:1;stroke:#ff6600;stroke-width:1.8;stroke-linecap:round;stroke-linejoin:round;stroke-miterlimit:0;stroke-dasharray:none;stroke-opacity:1;paint-order:stroke markers fill"
             d="m 103.26963,112.55977 c -2.59206,0.1919 -3.429832,1.42222 -3.911002,3.19183 2.166822,-0.24071 3.244752,-0.65051 3.911002,-3.19183 z"
             sodipodi:nodetypes="ccc" /><path
             style="fill:none;fill-opacity:1;stroke:#ff6600;stroke-width:1.8;stroke-linecap:round;stroke-linejoin:round;stroke-miterlimit:0;stroke-dasharray:none;stroke-opacity:1;paint-order:stroke markers fill"
             d="m 91.380814,120.77017 c 0.105472,-1.39217 -0.348709,-3.10708 0.948661,-4.6384 0.779388,-0.8269 1.557392,-1.30907 3.438611,-2.38668 1.821339,-1.2044 2.342387,-2.93313 3.116188,-4.2955 0.557458,1.53677 0.85381,3.07253 0.402879,4.23912 -1.036679,3.03285 -4.074547,3.45002 -6.089237,4.86744 -0.562953,0.32366 -1.109914,0.67751 -1.817102,2.21402 z"
             id="path1436"
             sodipodi:nodetypes="ccccccc" /></g><path
           id="path1440"
           style="fill:none;fill-opacity:1;stroke:#ff6600;stroke-width:1.8;stroke-linecap:round;stroke-linejoin:round;stroke-miterlimit:0;stroke-dasharray:none;stroke-opacity:1;paint-order:stroke markers fill"
           d="m 89.158896,99.144009 c -2.354081,2.578001 -3.001121,4.404631 -3.145028,6.975801 -0.187479,0.12412 -0.379412,0.21543 -0.626355,-0.0986 l -0.660904,-0.9184 -0.257532,1.72218 c -0.237025,0.98218 1.241911,3.23061 -0.455875,2.19048 -0.196882,-0.058 -0.292795,-0.27073 -0.390402,-0.48083 0.230967,1.26276 0.06812,2.0902 0.995449,3.69864 0.95071,1.26487 2.961456,2.14056 4.212669,3.0737 0.287849,-0.22762 -0.01247,-0.40619 0.527973,-0.60524 2.357809,-0.60735 4.291023,-2.03806 4.73766,-3.22192 0.204634,-0.53816 0.372906,-1.60624 0.356946,-2.32213 -0.0091,-0.40618 0.138413,-0.79212 0.173239,-1.04444 -0.425247,0.30494 -1.123343,0.4092 -1.294451,0.87616 l -0.112818,0.0385 c 0.141688,-0.42692 0.526248,-0.82323 0.639075,-1.35122 0.0835,-0.52643 0.203294,-1.10721 -0.08029,-1.83389 l -0.364835,-0.92552 c -0.137398,0.44955 -0.2667,0.91194 -0.590145,1.0666 -0.289056,0.0884 -0.414924,0.22676 -0.494543,0.37931 0.295914,-2.35075 -0.575895,-3.82816 -2.148879,-5.17318 -0.850009,-0.73778 -0.893478,-1.387311 -1.020954,-2.046041 z"
           sodipodi:nodetypes="cccccccccccsccccccccccc" /><g
           id="g1446"
           transform="matrix(-1,0,0,1,179.83376,0)"
           style="fill:none;fill-opacity:1;stroke:#ff6600;stroke-width:1.8;stroke-linecap:round;stroke-linejoin:round;stroke-dasharray:none;stroke-opacity:1"><path
             id="path1442"
             style="fill:none;fill-opacity:1;stroke:#ff6600;stroke-width:1.8;stroke-linecap:round;stroke-linejoin:round;stroke-miterlimit:0;stroke-dasharray:none;stroke-opacity:1;paint-order:stroke markers fill"
             d="m 103.26963,112.55977 c -2.59206,0.1919 -3.429832,1.42222 -3.911002,3.19183 2.166822,-0.24071 3.244752,-0.65051 3.911002,-3.19183 z"
             sodipodi:nodetypes="ccc" /><path
             style="fill:none;fill-opacity:1;stroke:#ff6600;stroke-width:1.8;stroke-linecap:round;stroke-linejoin:round;stroke-miterlimit:0;stroke-dasharray:none;stroke-opacity:1;paint-order:stroke markers fill"
             d="m 91.380814,120.77017 c 0.105472,-1.39217 -0.348709,-3.10708 0.948661,-4.6384 0.779388,-0.8269 1.557392,-1.30907 3.438611,-2.38668 1.821339,-1.2044 2.342387,-2.93313 3.116188,-4.2955 0.557458,1.53677 0.85381,3.07253 0.402879,4.23912 -1.036679,3.03285 -4.074547,3.45002 -6.089237,4.86744 -0.562953,0.32366 -1.109914,0.67751 -1.817102,2.21402 z"
             id="path1444"
             sodipodi:nodetypes="ccccccc" /></g></g><g
         id="g748"
         style="opacity:0.979168;mix-blend-mode:normal;fill:#000000;fill-opacity:1;stroke:none;stroke-opacity:1;filter:url(#filter1430)"
         transform="translate(-0.04510374,0.83728303)"><g
           id="g733"
           transform="translate(-1.5875)"
           style="fill:#000000;fill-opacity:1;stroke:none;stroke-opacity:1"><path
             id="path507"
             style="fill:#000000;fill-opacity:1;stroke:none;stroke-width:0.0867696;stroke-linecap:round;stroke-linejoin:round;stroke-miterlimit:0;stroke-opacity:1;paint-order:stroke markers fill"
             d="m 103.26963,112.55977 c -2.59206,0.1919 -3.429832,1.42222 -3.911002,3.19183 2.166822,-0.24071 3.244752,-0.65051 3.911002,-3.19183 z"
             sodipodi:nodetypes="ccc" /><path
             style="fill:#000000;fill-opacity:1;stroke:none;stroke-width:0.107711;stroke-linecap:round;stroke-linejoin:round;stroke-miterlimit:0;stroke-opacity:1;paint-order:stroke markers fill"
             d="m 91.380814,120.77017 c 0.105472,-1.39217 -0.348709,-3.10708 0.948661,-4.6384 0.779388,-0.8269 1.557392,-1.30907 3.438611,-2.38668 1.821339,-1.2044 2.342387,-2.93313 3.116188,-4.2955 0.557458,1.53677 0.85381,3.07253 0.402879,4.23912 -1.036679,3.03285 -4.074547,3.45002 -6.089237,4.86744 -0.562953,0.32366 -1.109914,0.67751 -1.817102,2.21402 z"
             id="path607"
             sodipodi:nodetypes="ccccccc" /></g><path
           id="path728"
           style="fill:#000000;fill-opacity:1;stroke:none;stroke-width:0.162;stroke-linecap:round;stroke-linejoin:round;stroke-miterlimit:0;stroke-opacity:1;paint-order:stroke markers fill"
           d="m 89.158896,99.144009 c -2.354081,2.578001 -3.001121,4.404631 -3.145028,6.975801 -0.187479,0.12412 -0.379412,0.21543 -0.626355,-0.0986 l -0.660904,-0.9184 -0.257532,1.72218 c -0.237025,0.98218 1.241911,3.23061 -0.455875,2.19048 -0.196882,-0.058 -0.292795,-0.27073 -0.390402,-0.48083 0.230967,1.26276 0.06812,2.0902 0.995449,3.69864 0.95071,1.26487 2.961456,2.14056 4.212669,3.0737 0.287849,-0.22762 -0.01247,-0.40619 0.527973,-0.60524 2.357809,-0.60735 4.291023,-2.03806 4.73766,-3.22192 0.204634,-0.53816 0.372906,-1.60624 0.356946,-2.32213 -0.0091,-0.40618 0.138413,-0.79212 0.173239,-1.04444 -0.425247,0.30494 -1.123343,0.4092 -1.294451,0.87616 l -0.112818,0.0385 c 0.141688,-0.42692 0.526248,-0.82323 0.639075,-1.35122 0.0835,-0.52643 0.203294,-1.10721 -0.08029,-1.83389 l -0.364835,-0.92552 c -0.137398,0.44955 -0.2667,0.91194 -0.590145,1.0666 -0.289056,0.0884 -0.414924,0.22676 -0.494543,0.37931 0.295914,-2.35075 -0.575895,-3.82816 -2.148879,-5.17318 -0.850009,-0.73778 -0.893478,-1.387311 -1.020954,-2.046041 z"
           sodipodi:nodetypes="cccccccccccsccccccccccc" /><g
           id="g739"
           transform="matrix(-1,0,0,1,179.83376,0)"
           style="fill:#000000;fill-opacity:1;stroke:none;stroke-opacity:1"><path
             id="path735"
             style="fill:#000000;fill-opacity:1;stroke:none;stroke-width:0.0867696;stroke-linecap:round;stroke-linejoin:round;stroke-miterlimit:0;stroke-opacity:1;paint-order:stroke markers fill"
             d="m 103.26963,112.55977 c -2.59206,0.1919 -3.429832,1.42222 -3.911002,3.19183 2.166822,-0.24071 3.244752,-0.65051 3.911002,-3.19183 z"
             sodipodi:nodetypes="ccc" /><path
             style="fill:#000000;fill-opacity:1;stroke:none;stroke-width:0.107711;stroke-linecap:round;stroke-linejoin:round;stroke-miterlimit:0;stroke-opacity:1;paint-order:stroke markers fill"
             d="m 91.380814,120.77017 c 0.105472,-1.39217 -0.348709,-3.10708 0.948661,-4.6384 0.779388,-0.8269 1.557392,-1.30907 3.438611,-2.38668 1.821339,-1.2044 2.342387,-2.93313 3.116188,-4.2955 0.557458,1.53677 0.85381,3.07253 0.402879,4.23912 -1.036679,3.03285 -4.074547,3.45002 -6.089237,4.86744 -0.562953,0.32366 -1.109914,0.67751 -1.817102,2.21402 z"
             id="path737"
             sodipodi:nodetypes="ccccccc" /></g></g></g></g></svg>
