<?xml version="1.0" encoding="UTF-8" standalone="no"?>
<!-- Created with Inkscape (http://www.inkscape.org/) -->

<svg
   width="11.529816mm"
   height="13.267391mm"
   viewBox="0 0 11.529816 13.267391"
   version="1.1"
   id="svg5"
   xml:space="preserve"
   sodipodi:docname="ellipse2617.svg"
   inkscape:version="1.2.2 (1:1.2.2+202305151914+b0a8486541)"
   inkscape:export-filename="wheel.svg"
   inkscape:export-xdpi="96"
   inkscape:export-ydpi="96"
   xmlns:inkscape="http://www.inkscape.org/namespaces/inkscape"
   xmlns:sodipodi="http://sodipodi.sourceforge.net/DTD/sodipodi-0.dtd"
   xmlns="http://www.w3.org/2000/svg"
   xmlns:svg="http://www.w3.org/2000/svg"><sodipodi:namedview
     id="namedview148"
     pagecolor="#505050"
     bordercolor="#eeeeee"
     borderopacity="1"
     inkscape:showpageshadow="0"
     inkscape:pageopacity="0"
     inkscape:pagecheckerboard="0"
     inkscape:deskcolor="#505050"
     inkscape:document-units="mm"
     showgrid="false"
     inkscape:zoom="1.9786329"
     inkscape:cx="152.63064"
     inkscape:cy="147.32395"
     inkscape:window-width="1366"
     inkscape:window-height="704"
     inkscape:window-x="0"
     inkscape:window-y="27"
     inkscape:window-maximized="1"
     inkscape:current-layer="svg5" /><defs
     id="defs2"><inkscape:path-effect
       effect="powerclip"
       id="path-effect7323"
       is_visible="true"
       lpeversion="1"
       inverse="true"
       flatten="false"
       hide_clip="false"
       message="Usar a regra de preenchimento par ou ímpar na caixa de diálogo &lt;b&gt;preenchimento e contorno&lt;/b&gt; se nenhum resultado nivelar após converter o clipe em caminhos." /><clipPath
       clipPathUnits="userSpaceOnUse"
       id="clipPath7319"><ellipse
         style="display:none;opacity:0.78502;fill:none;fill-opacity:1;stroke:#6d2d03;stroke-width:0.306444;stroke-linecap:square;stroke-linejoin:round;stroke-miterlimit:3.6;stroke-dasharray:none;stroke-dashoffset:0;stroke-opacity:0.998039"
         id="ellipse7321"
         cx="153.65047"
         cy="1.3130261"
         rx="3.8011456"
         ry="3.8122146"
         d="m 157.45161,1.3130261 a 3.8011456,3.8122146 0 0 1 -3.80114,3.8122146 3.8011456,3.8122146 0 0 1 -3.80115,-3.8122146 3.8011456,3.8122146 0 0 1 3.80115,-3.8122146 3.8011456,3.8122146 0 0 1 3.80114,3.8122146 z" /><path
         id="lpe_path-effect7323"
         style="opacity:0.78502;fill:none;fill-opacity:1;stroke:#6d2d03;stroke-width:0.306444;stroke-linecap:square;stroke-linejoin:round;stroke-miterlimit:3.6;stroke-dasharray:none;stroke-dashoffset:0;stroke-opacity:0.998039"
         class="powerclip"
         d="m 142.66659,-10.542797 h 21.90476 v 23.698829 h -21.90476 z m 14.78502,11.8558231 a 3.8011456,3.8122146 0 0 0 -3.80114,-3.8122146 3.8011456,3.8122146 0 0 0 -3.80115,3.8122146 3.8011456,3.8122146 0 0 0 3.80115,3.8122146 3.8011456,3.8122146 0 0 0 3.80114,-3.8122146 z" /></clipPath></defs><g
     id="g7679"
     inkscape:export-filename="bearing.svg"
     inkscape:export-xdpi="96"
     inkscape:export-ydpi="96"
     transform="translate(-114.75289,-12.035705)"><path
       style="color:#000000;opacity:0.78502;fill:#ffffff;fill-opacity:0.996078;stroke-linecap:square;stroke-linejoin:round;stroke-miterlimit:3.6;-inkscape-stroke:none"
       d="m 105.58008,14.988281 c -5.25522,3e-6 -9.564455,4.327869 -9.564455,9.585938 0,5.258069 4.309235,9.583981 9.564455,9.583984 5.25522,2e-6 9.56445,-4.325912 9.56445,-9.583984 0,-5.258072 -4.30923,-9.585939 -9.56445,-9.585938 z m 0,5.277344 c 2.3955,-1e-6 4.28906,1.893662 4.28906,4.308594 0,2.414932 -1.89356,4.308594 -4.28906,4.308593 -2.3955,-1e-6 -4.28711,-1.893662 -4.28711,-4.308593 0,-2.414931 1.89161,-4.308593 4.28711,-4.308594 z"
       id="ellipse6377" /><path
       style="color:#000000;opacity:0.78502;fill:#ff6600;fill-opacity:0.996078;stroke-linecap:square;stroke-linejoin:round;stroke-miterlimit:3.6;-inkscape-stroke:none"
       d="m 105.58008,14.988281 c -5.25522,3e-6 -9.564455,4.327869 -9.564455,9.585938 0,5.258069 4.309235,9.583981 9.564455,9.583984 5.25522,2e-6 9.56445,-4.325912 9.56445,-9.583984 0,-5.258072 -4.30923,-9.585939 -9.56445,-9.585938 z m 0,5.277344 c 2.3955,-1e-6 4.28906,1.893662 4.28906,4.308594 0,2.414932 -1.89356,4.308594 -4.28906,4.308593 -2.3955,-1e-6 -4.28711,-1.893662 -4.28711,-4.308593 0,-2.414931 1.89161,-4.308593 4.28711,-4.308594 z"
       id="ellipse6379" /><path
       style="color:#000000;opacity:0.78502;fill:#999999;stroke-linecap:square;stroke-linejoin:round;stroke-miterlimit:3.6;-inkscape-stroke:none"
       d="m 105.58008,13.564453 c -6.060554,2e-6 -10.976564,4.932506 -10.976564,11.009766 0,6.07726 4.91601,11.007811 10.976564,11.007812 6.06055,2e-6 10.97851,-4.93055 10.97851,-11.007812 0,-6.077263 -4.91796,-11.009768 -10.97851,-11.009766 z m 0,0.398438 c 5.84445,-2e-6 10.57812,4.748918 10.57812,10.611328 0,5.86241 -4.73367,10.609376 -10.57812,10.609375 -5.844449,-2e-6 -10.578127,-4.746968 -10.578127,-10.609375 0,-5.862408 4.733678,-10.611327 10.578127,-10.611328 z"
       id="ellipse1913" /><g
       id="ellipse7107"
       style="opacity:0.78502"><path
         style="color:#000000;fill:#999999;stroke-width:1.88972;stroke-linecap:square;stroke-linejoin:round;stroke-miterlimit:3.6;-inkscape-stroke:none"
         d="m 108.06136,24.573776 a 2.4808137,2.4880378 0 0 1 -2.48082,2.488038 2.4808137,2.4880378 0 0 1 -2.48081,-2.488038 2.4808137,2.4880378 0 0 1 2.48081,-2.488038 2.4808137,2.4880378 0 0 1 2.48082,2.488038 z"
         id="path12024" /><path
         style="color:#000000;fill:#999999;stroke-linecap:square;stroke-linejoin:round;stroke-miterlimit:3.6;-inkscape-stroke:none"
         d="m 105.58008,21.140625 c -1.88224,3e-6 -3.42578,1.550335 -3.42578,3.433594 0,1.883259 1.54354,3.431638 3.42578,3.43164 1.88224,5e-6 3.42578,-1.548376 3.42578,-3.43164 0,-1.883265 -1.54354,-3.433599 -3.42578,-3.433594 z m 0,1.890625 c 0.85799,-2e-6 1.53711,0.67802 1.53711,1.542969 0,0.864948 -0.67912,1.542971 -1.53711,1.542968 -0.85799,-1e-6 -1.53516,-0.678022 -1.53516,-1.542968 0,-0.864946 0.67717,-1.542968 1.53516,-1.542969 z"
         id="path12026" /></g></g><g
     id="g7329"
     transform="matrix(0.81865272,0,0,0.81865272,-54.387723,6.8409318)"
     inkscape:export-filename="screw.svg"
     inkscape:export-xdpi="96"
     inkscape:export-ydpi="96"><path
       sodipodi:type="star"
       style="opacity:0.875621;fill:#b3b3b3;fill-opacity:1;stroke:#010000;stroke-width:0.4;stroke-linecap:square;stroke-linejoin:miter;stroke-miterlimit:3.6;stroke-dasharray:none;stroke-dashoffset:0;stroke-opacity:0.998039"
       id="path7179"
       inkscape:flatsided="false"
       sodipodi:sides="6"
       sodipodi:cx="153.61897"
       sodipodi:cy="1.3066171"
       sodipodi:r1="6.6192698"
       sodipodi:r2="5.7523742"
       sodipodi:arg1="0.52359878"
       sodipodi:arg2="1.0471976"
       inkscape:rounded="0"
       inkscape:randomized="0"
       d="m 159.35143,4.6162521 -2.85627,1.6720673 -2.87619,1.6375676 -2.87618,-1.6375678 -2.85627,-1.6720672 -0.0199,-3.3096351 0.0199,-3.3096347 2.85627,-1.6720674 2.87618,-1.6375675 2.87619,1.6375678 2.85627,1.6720671 0.0199,3.3096352 z"
       inkscape:transform-center-x="3.5681285e-06"
       transform="matrix(1.1830479,0,0,1.1830479,-108.26101,-1.798935)"
       clip-path="url(#clipPath7319)"
       inkscape:path-effect="#path-effect7323" /><ellipse
       style="opacity:0.78502;fill:none;fill-opacity:1;stroke:#000000;stroke-width:0.362537;stroke-linecap:square;stroke-linejoin:round;stroke-miterlimit:3.6;stroke-dasharray:none;stroke-dashoffset:0;stroke-opacity:0.998039"
       id="ellipse7309"
       ry="4.5100322"
       rx="4.4969373"
       cy="-0.24178335"
       cx="73.51059" /></g></svg>
